<?xml version="1.0" encoding="UTF-8" standalone="no"?>
<!-- Uploaded to: SVG Repo, www.svgrepo.com, Generator: SVG Repo Mixer Tools -->

<svg
   width="800px"
   height="800px"
   viewBox="0 0 72 72"
   id="emoji"
   version="1.1"
   sodipodi:docname="logo.svg"
   inkscape:version="1.4 (86a8ad7, 2024-10-11)"
   inkscape:export-filename="logo.png"
   inkscape:export-xdpi="96"
   inkscape:export-ydpi="96"
   xmlns:inkscape="http://www.inkscape.org/namespaces/inkscape"
   xmlns:sodipodi="http://sodipodi.sourceforge.net/DTD/sodipodi-0.dtd"
   xmlns="http://www.w3.org/2000/svg"
   xmlns:svg="http://www.w3.org/2000/svg">
  <defs
     id="defs8" />
  <sodipodi:namedview
     id="namedview8"
     pagecolor="#ffffff"
     bordercolor="#000000"
     borderopacity="0.25"
     inkscape:showpageshadow="2"
     inkscape:pageopacity="0.0"
     inkscape:pagecheckerboard="0"
     inkscape:deskcolor="#d1d1d1"
     inkscape:zoom="0.69125"
     inkscape:cx="399.27667"
     inkscape:cy="400"
     inkscape:window-width="1366"
     inkscape:window-height="715"
     inkscape:window-x="-8"
     inkscape:window-y="-8"
     inkscape:window-maximized="1"
     inkscape:current-layer="emoji" />
  <circle
     cx="33.460003"
     cy="26.480003"
     r="3"
     fill="#fcea2b"
     stroke="#fcea2b"
     stroke-width="1.8"
     id="circle1"
     style="fill:#ffe680;fill-opacity:1;stroke:#fcea8c;stroke-linecap:round;stroke-linejoin:round;stroke-miterlimit:10;stroke-opacity:1" />
  <path
     fill="#fcea2b"
     stroke="#fcea2b"
     stroke-width="1.8"
     d="m 47.68,53.59 -1.98,3.87 c 0.63,0.07 1.46,0.39 1.46,1.57 0,1.91 -1.82,1.93 -1.82,1.93 L 32.03,60.94 c 0,0 -5.72,0.61 -5.72,-4.62 0,-5.05 5.31,-5.14 5.7,-5.14 h 7.27 c 0.3395,-2.542 -2.384,-10.6 -4.74,-7.499 -0.3418,0.4495 -2.372,2.349 -3.272,2.87 -2.74,1.584 -9.22,-3.191 -8.526,-6.356 0.09518,-0.434 4.15,5.601 6.753,4.617 1.253,-0.4742 3.043,-4.682 3.338,-5.609 0.5199,-2.37 1.548,-5.702 4.538,-7.072 5.23,-2.41 14.21,14.38 10.31,21.46 z"
     id="path1"
     style="fill:#ffe680;stroke-linecap:round;stroke-linejoin:round;stroke-miterlimit:10" />
  <path
     fill="#fcea2b"
     stroke="#fcea2b"
     stroke-width="2"
     d="M 32.02,51.18"
     id="path2"
     style="stroke-linecap:round;stroke-linejoin:round;stroke-miterlimit:10" />
  <path
     fill="#fcea2b"
     stroke="#fcea2b"
     stroke-width="2"
     d="M 38.46,51.18 38.3499,50.9201 38.43,50.99 c 0.02,0.12 0.03,0.19 0.03,0.19 z"
     id="path3"
     style="stroke-linecap:round;stroke-linejoin:round;stroke-miterlimit:10" />
  <path
     fill="#fcea2b"
     stroke="#fcea2b"
     stroke-width="2"
     d="m 38.46,51.18 -0.1101,-0.2599 0.0801,0.0699 0.02,0.02 c 0.01,0.06 0.01,0.11 0.01,0.17 z"
     id="path4"
     style="stroke-linecap:round;stroke-linejoin:round;stroke-miterlimit:10" />
  <path
     fill="none"
     stroke="#d22f27"
     stroke-width="2"
     d="M 32.02,51.18"
     id="path5"
     style="stroke-linecap:round;stroke-linejoin:round;stroke-miterlimit:10" />
  <path
     d="M 45.26,55.79"
     id="path6"
     style="stroke:#000000;stroke-miterlimit:10" />
  <polyline
     fill="none"
     stroke-linecap="round"
     stroke-linejoin="round"
     stroke-width="2"
     points="11 25.04 36 10.83 61 24.47"
     id="polyline6"
     style="stroke:#009900;stroke-miterlimit:10;stroke-width:1.99998;stroke-dasharray:none;stroke-opacity:1" />
  <circle
     cx="33.460003"
     cy="26.480003"
     r="3"
     fill="none"
     stroke-linecap="round"
     stroke-linejoin="round"
     stroke-width="2"
     id="circle6"
     style="stroke:#006600;stroke-width:1.99998;stroke-miterlimit:10;stroke-dasharray:none;stroke-opacity:1" />
  <path
     fill="none"
     stroke-linecap="round"
     stroke-linejoin="round"
     stroke-width="2"
     d="m 36.54,43.58 c 2.15,2.33 2.92,7.6 2.92,7.6 l -6.848,-0.0016 c 0,0 -6.124,-0.094 -6.124,5.138 0,5.232 5.724,4.624 5.724,4.624 l 13.31,0.0216 c 0,0 1.824,-0.0216 1.824,-1.932 0,-1.9104 -2.171,-1.563 -2.171,-1.563 h -8.004 l -5.206,-1.39"
     id="path7"
     style="stroke:#005100;stroke-miterlimit:10;stroke-opacity:1" />
  <path
     fill="none"
     stroke-linecap="round"
     stroke-linejoin="round"
     stroke-width="2"
     d="m 23.29,39.46 c 0,0 2.67,4.92 6.02,4.92 3.35,0 1.649,-9.221 8.239,-12.25 5.227,-2.407 14.21,14.38 10.31,21.46"
     id="path8"
     style="stroke:#005700;stroke-miterlimit:10;stroke-opacity:1" />
</svg>
